$NOD
462
1 2 0 0
2 1.9871019466 0.0771477689 0
3 1.9636893676 0.15188467 0
4 1.9336082397 0.2242107033 0
5 1.8982711516 0.2941258688 0
6 1.8585155034 0.3616301666 0
7 1.8149207267 0.4267235965 0
8 1.7679231285 0.4894061587 0
9 1.7178695553 0.5496778532 0
10 1.6650464225 0.6075386798 0
11 1.6096970252 0.6629886387 0
12 1.5520326086 0.7160277298 0
13 1.492239836 0.7666559531 0
14 1.4304860403 0.8148733086 0
15 1.3669230471 0.8606797964 0
16 1.3016900356 0.9040754164 0
17 1.2349157322 0.9450601686 0
18 1.1667201278 0.983634053 0
19 1.0972158466 1.0197970697 0
20 1.0265092551 1.0535492186 0
21 0.9547013737 1.0848904997 0
22 0.8818886363 1.113820913 0
23 0.8081635318 1.1403404585 0
24 0.7336151514 1.1644491363 0
25 0.6583296626 1.1861469463 0
26 0.5823907225 1.2054338885 0
27 0.5058798438 1.2223099629 0
28 0.4288767223 1.2367751696 0
29 0.3514595331 1.2488295085 0
30 0.2737052018 1.2584729796 0
31 0.1956896566 1.2657055829 0
32 0.1174880642 1.2705273185 0
33 0.0391750559 1.2729381863 0
34 -0.0391750559 1.2729381863 0
35 -0.1174880642 1.2705273185 0
36 -0.1956896566 1.2657055829 0
37 -0.2737052018 1.2584729796 0
38 -0.3514595331 1.2488295085 0
39 -0.4288767223 1.2367751696 0
40 -0.5058798438 1.2223099629 0
41 -0.5823907225 1.2054338885 0
42 -0.6583296626 1.1861469463 0
43 -0.7336151514 1.1644491363 0
44 -0.8081635318 1.1403404585 0
45 -0.8818886363 1.113820913 0
46 -0.9547013737 1.0848904997 0
47 -1.0265092551 1.0535492186 0
48 -1.0972158466 1.0197970697 0
49 -1.1667201278 0.983634053 0
50 -1.2349157322 0.9450601686 0
51 -1.3016900356 0.9040754164 0
52 -1.3669230471 0.8606797964 0
53 -1.4304860403 0.8148733086 0
54 -1.492239836 0.7666559531 0
55 -1.5520326086 0.7160277298 0
56 -1.6096970252 0.6629886387 0
57 -1.6650464225 0.6075386798 0
58 -1.7178695553 0.5496778532 0
59 -1.7679231285 0.4894061587 0
60 -1.8149207267 0.4267235965 0
61 -1.8585155034 0.3616301666 0
62 -1.8982711516 0.2941258688 0
63 -1.9336082397 0.2242107033 0
64 -1.9636893676 0.15188467 0
65 -1.9871019466 0.0771477689 0
66 -2 0 0
67 2.6 0 0
68 2.5686404082 0.2248400766 0
69 2.5267662907 0.3591149252 0
70 2.4782236243 0.4759925192 0
71 2.4244249977 0.5825043184000001 0
72 2.3662078111 0.6813933926 0
73 2.3041514959 0.7740753699 0
74 2.2386923593 0.8613958513 0
75 2.1701772476 0.9439084348 0
76 2.0988925763 1.0219991903 0
77 2.0250816406 1.0959500934 0
78 1.9489556856 1.1659744722 0
79 1.8707013744 1.2322382379 0
80 1.7904860403 1.2948733086 0
81 1.7084615087 1.3539864751 0
82 1.6247669587 1.4096654695 0
83 1.5395311168 1.4619832455 0
84 1.4528739739 1.5110010754 0
85 1.3649081543 1.5567708385 0
86 1.2757400244 1.5993367447 0
87 1.1854706045 1.6387366535 0
88 1.0941963286 1.6750030971 0
89 1.0020096856 1.7081640831 0
90 0.9089997668000001 1.7382437308 0
91 0.8152527396 1.7652627792 0
92 0.720852261 1.789238995 0
93 0.6258798437999999 1.8101875012 0
94 0.5304151838 1.828121042 0
95 0.4345364562 1.8430501955 0
96 0.3383205864 1.8549835429 0
97 0.2418435027 1.8639278012 0
98 0.1451803719 1.8698879245 0
99 0.0484058251 1.8728671761 0
100 -0.0484058251 1.8728671761 0
101 -0.1451803719 1.8698879245 0
102 -0.2418435027 1.8639278012 0
103 -0.3383205864 1.8549835429 0
104 -0.4345364562 1.8430501955 0
105 -0.5304151838 1.828121042 0
106 -0.6258798437999999 1.8101875012 0
107 -0.720852261 1.789238995 0
108 -0.8152527396 1.7652627792 0
109 -0.9089997668000001 1.7382437308 0
110 -1.0020096856 1.7081640831 0
111 -1.0941963286 1.6750030971 0
112 -1.1854706045 1.6387366535 0
113 -1.2757400244 1.5993367447 0
114 -1.3649081543 1.5567708385 0
115 -1.4528739739 1.5110010754 0
116 -1.5395311168 1.4619832455 0
117 -1.6247669587 1.4096654695 0
118 -1.7084615087 1.3539864751 0
119 -1.7904860403 1.2948733086 0
120 -1.8707013744 1.2322382379 0
121 -1.9489556856 1.1659744722 0
122 -2.0250816406 1.0959500934 0
123 -2.0988925763 1.0219991903 0
124 -2.1701772476 0.9439084348 0
125 -2.2386923593 0.8613958513 0
126 -2.3041514959 0.7740753699 0
127 -2.3662078111 0.6813933926 0
128 -2.4244249977 0.5825043184000001 0
129 -2.4782236243 0.4759925192 0
130 -2.5267662907 0.3591149252 0
131 -2.5686404082 0.2248400766 0
132 -2.6 0 0
133 2.099999999999798 0 0
134 2.199999999999942 0 0
135 2.300000000000087 0 0
136 2.400000000000404 0 0
137 2.500000000000491 0 0
138 1.943130888016518 0.4149240375999064 0
139 2.027746272632908 0.4682179085997322 0
140 2.112361657249427 0.521511779599639 0
141 2.196977041866195 0.5748056505997031 0
142 2.281592426483225 0.6280995215999319 0
143 1.678927794433169 0.7351488811498286 0
144 1.748158563666637 0.807309123599969 0
145 1.817389332899668 0.8794693660496544 0
146 1.886620102133078 0.9516296084997337 0
147 1.955850871367006 1.023789850950354 0
148 1.355536189449971 0.9883404252499545 0
149 1.409382343299851 1.072605434099767 0
150 1.4632284971497 1.15687044294953 0
151 1.517074650999781 1.241135451799658 0
152 1.570920804849856 1.325400460649775 0
153 0.9931629121665494 1.177198191999719 0
154 1.031624450633113 1.269505884299471 0
155 1.070085989099693 1.361813576599264 0
156 1.108547527566504 1.454121268899611 0
157 1.147009066033234 1.546428961199761 0
158 0.6054676455832865 1.302734739583136 0
159 0.6285445686665619 1.400035590666225 0
160 0.651621491749812 1.497336441749207 0
161 0.6746984148332141 1.594637292832831 0
162 0.6977753379166076 1.691938143916418 0
163 0.2033819642833133 1.36540928594974 0
164 0.2110742719666332 1.465112988999566 0
165 0.2187665796499398 1.56481669204922 0
166 0.2264588873332865 1.664520395099393 0
167 0.2341511950166488 1.764224098149769 0
168 -0.2033819642833133 1.36540928594974 0
169 -0.2110742719666332 1.465112988999566 0
170 -0.2187665796499398 1.56481669204922 0
171 -0.2264588873332865 1.664520395099393 0
172 -0.2341511950166488 1.764224098149769 0
173 -0.6054676455832865 1.302734739583136 0
174 -0.6285445686665619 1.400035590666225 0
175 -0.651621491749812 1.497336441749207 0
176 -0.6746984148332141 1.594637292832831 0
177 -0.6977753379166076 1.691938143916418 0
178 -0.9931629121665494 1.177198191999719 0
179 -1.031624450633113 1.269505884299471 0
180 -1.070085989099693 1.361813576599264 0
181 -1.108547527566504 1.454121268899611 0
182 -1.147009066033234 1.546428961199761 0
183 -1.355536189449971 0.9883404252499545 0
184 -1.409382343299851 1.072605434099767 0
185 -1.4632284971497 1.15687044294953 0
186 -1.517074650999781 1.241135451799658 0
187 -1.570920804849856 1.325400460649775 0
188 -1.678927794433169 0.7351488811498286 0
189 -1.748158563666637 0.807309123599969 0
190 -1.817389332899668 0.8794693660496544 0
191 -1.886620102133078 0.9516296084997337 0
192 -1.955850871367006 1.023789850950354 0
193 -1.943130888016518 0.4149240375999064 0
194 -2.027746272632908 0.4682179085997322 0
195 -2.112361657249427 0.521511779599639 0
196 -2.196977041866195 0.5748056505997031 0
197 -2.281592426483225 0.6280995215999319 0
198 -2.099999999999798 0 0
199 -2.199999999999942 0 0
200 -2.300000000000087 0 0
201 -2.400000000000404 0 0
202 -2.500000000000491 0 0
203 2.084025023533143 0.1017631535166221 0
204 2.057535521449821 0.1864230458666047 0
205 2.024377470466498 0.2661743392832586 0
206 1.985963459283174 0.3421889437332484 0
207 2.180948100466505 0.126378538133232 0
208 2.151381675299767 0.2209614217331811 0
209 2.115146701233034 0.308137975266472 0
210 2.073655766966304 0.3902520186664341 0
211 2.277871177399903 0.1509939227498718 0
212 2.245227829149774 0.2554997975998027 0
213 2.205915931999654 0.3501016112497435 0
214 2.16134807464954 0.4383150935996895 0
215 2.374794254333498 0.175609307366578 0
216 2.339073982999994 0.2900381734665204 0
217 2.2966851627665 0.3920652472331345 0
218 2.249040382333013 0.4863781685330847 0
219 2.471717331266996 0.2002246919833331 0
220 2.432920136850213 0.3245765493333188 0
221 2.387454393533436 0.4340288832166356 0
222 2.336732690016663 0.5344412434666177 0
223 1.896459188233181 0.4846155587332223 0
224 1.846384666966511 0.5514044407998726 0
225 1.793254170683175 0.6153829501331904 0
226 1.737354114799838 0.6766154315498425 0
227 1.977997649766322 0.5425075209664453 0
228 1.924846205433069 0.6134027228998253 0
229 1.868638786066481 0.6810880470665395 0
230 1.809661807099892 0.7456921832999206 0
231 2.059536111299475 0.6003994831996379 0
232 2.003307743899525 0.6754010049996391 0
233 1.944023401449573 0.7467931439996427 0
234 1.881969499399621 0.814768935049648 0
235 2.141074572832906 0.6582914454330392 0
236 2.081769282366282 0.7373992870997106 0
237 2.019408016832992 0.8124982409330506 0
238 1.954277191699702 0.8838456867997248 0
239 2.222613034366651 0.716183407666686 0
240 2.160230820833406 0.799397569200105 0
241 2.09479263221683 0.8782033378668556 0
242 2.026584884000252 0.9529224385502721 0
243 1.618186454766529 0.7910188535331866 0
244 1.555316759066557 0.844253000566545 0
245 1.490486040299917 0.8948733085999034 0
246 1.423846124033278 0.9428975761832623 0
247 1.68434030093328 0.8660099772665942 0
248 1.618393682133256 0.9218500480332202 0
249 1.550486040299898 0.9748733085998466 0
250 1.480769200966541 1.025115355966473 0
251 1.750494147099674 0.9410011009996273 0
252 1.681470605199681 0.9994470954996018 0
253 1.610486040299687 1.054873308599577 0
254 1.537692277899693 1.107333135749553 0
255 1.816647993266419 1.01599222473305 0
256 1.744547528266426 1.077044142966368 0
257 1.670486040299766 1.134873308599686 0
258 1.594615354833107 1.189550915533004 0
259 1.882801839433575 1.090983348466904 0
260 1.807624451333478 1.154641190433455 0
261 1.730486040300048 1.214873308600006 0
262 1.651538431766618 1.271768695316557 0
263 1.28568496296662 1.031214014749906 0
264 1.214412435483269 1.071528556733192 0
265 1.141831231216584 1.109292697833145 0
266 1.0680477166499 1.144513806283098 0
267 1.33645419373317 1.117367860899706 0
268 1.262104743166489 1.159423060466313 0
269 1.186446615833141 1.198788325966254 0
270 1.109586178199794 1.235478393966195 0
271 1.387223424499698 1.203521707049475 0
272 1.309797050849697 1.24731756419942 0
273 1.231062000449695 1.288283954099367 0
274 1.151124639749694 1.326442981649315 0
275 1.437992655266459 1.289675553199647 0
276 1.357489358533137 1.335212067932971 0
277 1.275677385066482 1.377779582232961 0
278 1.192663101299826 1.417407569332952 0
279 1.488761886033199 1.375829399349772 0
280 1.40518166621654 1.423106571666435 0
281 1.320292769683216 1.467275210366432 0
282 1.234201562849891 1.50837215701643 0
283 0.9172732516832302 1.207351277016401 0
284 0.840471224099911 1.234977729266418 0
285 0.7628459206332585 1.260081568716434 0
286 0.6844835087666059 1.282666251783118 0
287 0.9526578670664694 1.30088164103282 0
288 0.8727789163998261 1.329615000032837 0
289 0.7920766898665157 1.355714001132855 0
290 0.7106373549332055 1.379185557266206 0
291 0.9880424824497168 1.394412005049251 0
292 0.9050866086997408 1.424252270799238 0
293 0.8213074590997643 1.451346433549227 0
294 0.7367912010997884 1.475704862749216 0
295 1.023427097833179 1.487942369066253 0
296 0.9373943009998548 1.51888954156623 0
297 0.8505382283331969 1.546978865966207 0
298 0.762945047266539 1.572224168232852 0
299 1.058811713216575 1.581472733083091 0
300 0.9697019932999165 1.613526812333089 0
301 0.8797689975665914 1.642611298383087 0
302 0.789098893433266 1.668743473716419 0
303 0.5258798437999583 1.320289552616456 0
304 0.4457997992166305 1.335332814999777 0
305 0.3653056869499692 1.347866289666431 0
306 0.2844744325666413 1.357891406816419 0
307 0.5458798437999095 1.418269142332893 0
308 0.4627228761332571 1.43389046039956 0
309 0.3791518407999381 1.446903070832895 0
310 0.2952436633332857 1.457309834032897 0
311 0.5658798437998376 1.516248732049208 0
312 0.4796459530498631 1.53244810579921 0
313 0.3929979946498887 1.545939851999213 0
314 0.3060128940999143 1.556728261249215 0
315 0.5858798437998952 1.614228321766142 0
316 0.4965690299665764 1.631005751199453 0
317 0.4068441484999242 1.6449766331661 0
318 0.3167821248666054 1.656146688466079 0
319 0.6058798437999491 1.712207911483087 0
320 0.5134921068832908 1.729563396599757 0
321 0.4206903023499656 1.744013414333094 0
322 0.3275513556333072 1.755565115683098 0
323 0.1221034488166546 1.370420752833073 0
324 0.04071351743332932 1.372926351266406 0
325 -0.04071351743332935 1.372926351266406 0
326 -0.1221034488166546 1.370420752833073 0
327 0.1267188334333133 1.470314187166232 0
328 0.04225197896665996 1.472914516232898 0
329 -0.04225197896665998 1.472914516232898 0
330 -0.1267188334333132 1.470314187166232 0
331 0.1313342180499639 1.570207621499218 0
332 0.04379044049998795 1.572902681199218 0
333 -0.04379044049998795 1.572902681199218 0
334 -0.1313342180499639 1.570207621499218 0
335 0.1359496026666386 1.670101055832725 0
336 0.04532890203332396 1.672890846166058 0
337 -0.04532890203332397 1.672890846166058 0
338 -0.1359496026666386 1.670101055832726 0
339 0.1405649872833226 1.769994490166435 0
340 0.04686736356666307 1.772879011133101 0
341 -0.04686736356666309 1.772879011133101 0
342 -0.1405649872833226 1.769994490166434 0
343 -0.2844744325666413 1.357891406816419 0
344 -0.3653056869499692 1.347866289666431 0
345 -0.4457997992166305 1.335332814999777 0
346 -0.5258798437999583 1.320289552616456 0
347 -0.2952436633332857 1.457309834032897 0
348 -0.379151840799938 1.446903070832895 0
349 -0.4627228761332571 1.43389046039956 0
350 -0.5458798437999097 1.418269142332893 0
351 -0.3060128940999142 1.556728261249216 0
352 -0.3929979946498885 1.545939851999213 0
353 -0.4796459530498631 1.53244810579921 0
354 -0.5658798437998376 1.516248732049208 0
355 -0.3167821248666054 1.65614668846608 0
356 -0.4068441484999242 1.6449766331661 0
357 -0.4965690299665764 1.631005751199454 0
358 -0.5858798437998951 1.614228321766142 0
359 -0.3275513556333072 1.755565115683098 0
360 -0.4206903023499656 1.744013414333094 0
361 -0.5134921068832907 1.729563396599757 0
362 -0.6058798437999492 1.712207911483087 0
363 -0.6844835087666059 1.282666251783119 0
364 -0.7628459206332585 1.260081568716435 0
365 -0.840471224099911 1.234977729266418 0
366 -0.9172732516832302 1.207351277016402 0
367 -0.7106373549332055 1.379185557266206 0
368 -0.7920766898665157 1.355714001132855 0
369 -0.8727789163998261 1.329615000032838 0
370 -0.9526578670664694 1.300881641032821 0
371 -0.7367912010997882 1.475704862749217 0
372 -0.8213074590997644 1.451346433549227 0
373 -0.905086608699741 1.424252270799238 0
374 -0.9880424824497172 1.39441200504925 0
375 -0.7629450472665389 1.572224168232852 0
376 -0.8505382283331966 1.546978865966208 0
377 -0.9373943009998549 1.518889541566231 0
378 -1.023427097833179 1.487942369066254 0
379 -0.7890988934332662 1.66874347371642 0
380 -0.8797689975665915 1.642611298383088 0
381 -0.9697019932999167 1.613526812333089 0
382 -1.058811713216575 1.581472733083092 0
383 -1.0680477166499 1.144513806283098 0
384 -1.141831231216585 1.109292697833145 0
385 -1.214412435483269 1.071528556733192 0
386 -1.28568496296662 1.031214014749906 0
387 -1.109586178199794 1.235478393966195 0
388 -1.186446615833141 1.198788325966253 0
389 -1.262104743166489 1.159423060466313 0
390 -1.33645419373317 1.117367860899706 0
391 -1.151124639749694 1.326442981649314 0
392 -1.231062000449695 1.288283954099367 0
393 -1.309797050849697 1.24731756419942 0
394 -1.387223424499698 1.203521707049474 0
395 -1.192663101299826 1.417407569332952 0
396 -1.275677385066481 1.377779582232961 0
397 -1.357489358533137 1.33521206793297 0
398 -1.437992655266459 1.289675553199646 0
399 -1.234201562849891 1.508372157016429 0
400 -1.320292769683216 1.467275210366432 0
401 -1.40518166621654 1.423106571666434 0
402 -1.488761886033199 1.375829399349771 0
403 -1.423846124033277 0.9428975761832623 0
404 -1.490486040299917 0.8948733085999038 0
405 -1.555316759066557 0.844253000566545 0
406 -1.618186454766529 0.7910188535331867 0
407 -1.480769200966541 1.025115355966473 0
408 -1.550486040299899 0.9748733085998463 0
409 -1.618393682133256 0.9218500480332201 0
410 -1.684340300933279 0.8660099772665942 0
411 -1.537692277899693 1.107333135749553 0
412 -1.610486040299687 1.054873308599577 0
413 -1.681470605199681 0.9994470954996015 0
414 -1.750494147099675 0.9410011009996274 0
415 -1.594615354833107 1.189550915533004 0
416 -1.670486040299766 1.134873308599686 0
417 -1.744547528266426 1.077044142966367 0
418 -1.816647993266419 1.01599222473305 0
419 -1.651538431766619 1.271768695316557 0
420 -1.730486040300048 1.214873308600006 0
421 -1.807624451333478 1.154641190433455 0
422 -1.882801839433575 1.090983348466904 0
423 -1.737354114799838 0.6766154315498421 0
424 -1.793254170683175 0.6153829501331901 0
425 -1.846384666966511 0.5514044407998726 0
426 -1.896459188233181 0.4846155587332222 0
427 -1.809661807099892 0.7456921832999206 0
428 -1.868638786066481 0.6810880470665394 0
429 -1.924846205433069 0.6134027228998253 0
430 -1.977997649766322 0.5425075209664449 0
431 -1.881969499399621 0.8147689350496475 0
432 -1.944023401449573 0.7467931439996424 0
433 -2.003307743899525 0.6754010049996391 0
434 -2.059536111299475 0.6003994831996378 0
435 -1.954277191699702 0.8838456867997244 0
436 -2.019408016832993 0.8124982409330502 0
437 -2.081769282366282 0.7373992870997105 0
438 -2.141074572832907 0.6582914454330391 0
439 -2.026584884000252 0.9529224385502718 0
440 -2.09479263221683 0.8782033378668557 0
441 -2.160230820833406 0.799397569200105 0
442 -2.222613034366649 0.7161834076666858 0
443 -1.985963459283175 0.3421889437332483 0
444 -2.024377470466498 0.2661743392832585 0
445 -2.05753552144982 0.1864230458666047 0
446 -2.084025023533143 0.1017631535166221 0
447 -2.073655766966303 0.3902520186664338 0
448 -2.115146701233034 0.3081379752664719 0
449 -2.151381675299767 0.2209614217331811 0
450 -2.180948100466505 0.1263785381332321 0
451 -2.16134807464954 0.4383150935996895 0
452 -2.205915931999654 0.3501016112497434 0
453 -2.245227829149775 0.2554997975998026 0
454 -2.277871177399904 0.1509939227498718 0
455 -2.249040382333013 0.4863781685330845 0
456 -2.296685162766501 0.3920652472331344 0
457 -2.339073982999994 0.2900381734665203 0
458 -2.374794254333499 0.175609307366578 0
459 -2.336732690016663 0.5344412434666173 0
460 -2.387454393533436 0.4340288832166354 0
461 -2.432920136850213 0.3245765493333188 0
462 -2.471717331266997 0.200224691983333 0
$ENDNOD
$ELM
390
1 3 1 600 4 1 133 203 2
2 3 1 600 4 2 203 204 3
3 3 1 600 4 3 204 205 4
4 3 1 600 4 4 205 206 5
5 3 1 600 4 5 206 138 6
6 3 1 600 4 133 134 207 203
7 3 1 600 4 203 207 208 204
8 3 1 600 4 204 208 209 205
9 3 1 600 4 205 209 210 206
10 3 1 600 4 206 210 139 138
11 3 1 600 4 134 135 211 207
12 3 1 600 4 207 211 212 208
13 3 1 600 4 208 212 213 209
14 3 1 600 4 209 213 214 210
15 3 1 600 4 210 214 140 139
16 3 1 600 4 135 136 215 211
17 3 1 600 4 211 215 216 212
18 3 1 600 4 212 216 217 213
19 3 1 600 4 213 217 218 214
20 3 1 600 4 214 218 141 140
21 3 1 600 4 136 137 219 215
22 3 1 600 4 215 219 220 216
23 3 1 600 4 216 220 221 217
24 3 1 600 4 217 221 222 218
25 3 1 600 4 218 222 142 141
26 3 1 600 4 137 67 68 219
27 3 1 600 4 219 68 69 220
28 3 1 600 4 220 69 70 221
29 3 1 600 4 221 70 71 222
30 3 1 600 4 222 71 72 142
31 3 2 601 4 6 138 223 7
32 3 2 601 4 7 223 224 8
33 3 2 601 4 8 224 225 9
34 3 2 601 4 9 225 226 10
35 3 2 601 4 10 226 143 11
36 3 2 601 4 138 139 227 223
37 3 2 601 4 223 227 228 224
38 3 2 601 4 224 228 229 225
39 3 2 601 4 225 229 230 226
40 3 2 601 4 226 230 144 143
41 3 2 601 4 139 140 231 227
42 3 2 601 4 227 231 232 228
43 3 2 601 4 228 232 233 229
44 3 2 601 4 229 233 234 230
45 3 2 601 4 230 234 145 144
46 3 2 601 4 140 141 235 231
47 3 2 601 4 231 235 236 232
48 3 2 601 4 232 236 237 233
49 3 2 601 4 233 237 238 234
50 3 2 601 4 234 238 146 145
51 3 2 601 4 141 142 239 235
52 3 2 601 4 235 239 240 236
53 3 2 601 4 236 240 241 237
54 3 2 601 4 237 241 242 238
55 3 2 601 4 238 242 147 146
56 3 2 601 4 142 72 73 239
57 3 2 601 4 239 73 74 240
58 3 2 601 4 240 74 75 241
59 3 2 601 4 241 75 76 242
60 3 2 601 4 242 76 77 147
61 3 3 602 4 11 143 243 12
62 3 3 602 4 12 243 244 13
63 3 3 602 4 13 244 245 14
64 3 3 602 4 14 245 246 15
65 3 3 602 4 15 246 148 16
66 3 3 602 4 143 144 247 243
67 3 3 602 4 243 247 248 244
68 3 3 602 4 244 248 249 245
69 3 3 602 4 245 249 250 246
70 3 3 602 4 246 250 149 148
71 3 3 602 4 144 145 251 247
72 3 3 602 4 247 251 252 248
73 3 3 602 4 248 252 253 249
74 3 3 602 4 249 253 254 250
75 3 3 602 4 250 254 150 149
76 3 3 602 4 145 146 255 251
77 3 3 602 4 251 255 256 252
78 3 3 602 4 252 256 257 253
79 3 3 602 4 253 257 258 254
80 3 3 602 4 254 258 151 150
81 3 3 602 4 146 147 259 255
82 3 3 602 4 255 259 260 256
83 3 3 602 4 256 260 261 257
84 3 3 602 4 257 261 262 258
85 3 3 602 4 258 262 152 151
86 3 3 602 4 147 77 78 259
87 3 3 602 4 259 78 79 260
88 3 3 602 4 260 79 80 261
89 3 3 602 4 261 80 81 262
90 3 3 602 4 262 81 82 152
91 3 4 603 4 16 148 263 17
92 3 4 603 4 17 263 264 18
93 3 4 603 4 18 264 265 19
94 3 4 603 4 19 265 266 20
95 3 4 603 4 20 266 153 21
96 3 4 603 4 148 149 267 263
97 3 4 603 4 263 267 268 264
98 3 4 603 4 264 268 269 265
99 3 4 603 4 265 269 270 266
100 3 4 603 4 266 270 154 153
101 3 4 603 4 149 150 271 267
102 3 4 603 4 267 271 272 268
103 3 4 603 4 268 272 273 269
104 3 4 603 4 269 273 274 270
105 3 4 603 4 270 274 155 154
106 3 4 603 4 150 151 275 271
107 3 4 603 4 271 275 276 272
108 3 4 603 4 272 276 277 273
109 3 4 603 4 273 277 278 274
110 3 4 603 4 274 278 156 155
111 3 4 603 4 151 152 279 275
112 3 4 603 4 275 279 280 276
113 3 4 603 4 276 280 281 277
114 3 4 603 4 277 281 282 278
115 3 4 603 4 278 282 157 156
116 3 4 603 4 152 82 83 279
117 3 4 603 4 279 83 84 280
118 3 4 603 4 280 84 85 281
119 3 4 603 4 281 85 86 282
120 3 4 603 4 282 86 87 157
121 3 5 604 4 21 153 283 22
122 3 5 604 4 22 283 284 23
123 3 5 604 4 23 284 285 24
124 3 5 604 4 24 285 286 25
125 3 5 604 4 25 286 158 26
126 3 5 604 4 153 154 287 283
127 3 5 604 4 283 287 288 284
128 3 5 604 4 284 288 289 285
129 3 5 604 4 285 289 290 286
130 3 5 604 4 286 290 159 158
131 3 5 604 4 154 155 291 287
132 3 5 604 4 287 291 292 288
133 3 5 604 4 288 292 293 289
134 3 5 604 4 289 293 294 290
135 3 5 604 4 290 294 160 159
136 3 5 604 4 155 156 295 291
137 3 5 604 4 291 295 296 292
138 3 5 604 4 292 296 297 293
139 3 5 604 4 293 297 298 294
140 3 5 604 4 294 298 161 160
141 3 5 604 4 156 157 299 295
142 3 5 604 4 295 299 300 296
143 3 5 604 4 296 300 301 297
144 3 5 604 4 297 301 302 298
145 3 5 604 4 298 302 162 161
146 3 5 604 4 157 87 88 299
147 3 5 604 4 299 88 89 300
148 3 5 604 4 300 89 90 301
149 3 5 604 4 301 90 91 302
150 3 5 604 4 302 91 92 162
151 3 6 605 4 26 158 303 27
152 3 6 605 4 27 303 304 28
153 3 6 605 4 28 304 305 29
154 3 6 605 4 29 305 306 30
155 3 6 605 4 30 306 163 31
156 3 6 605 4 158 159 307 303
157 3 6 605 4 303 307 308 304
158 3 6 605 4 304 308 309 305
159 3 6 605 4 305 309 310 306
160 3 6 605 4 306 310 164 163
161 3 6 605 4 159 160 311 307
162 3 6 605 4 307 311 312 308
163 3 6 605 4 308 312 313 309
164 3 6 605 4 309 313 314 310
165 3 6 605 4 310 314 165 164
166 3 6 605 4 160 161 315 311
167 3 6 605 4 311 315 316 312
168 3 6 605 4 312 316 317 313
169 3 6 605 4 313 317 318 314
170 3 6 605 4 314 318 166 165
171 3 6 605 4 161 162 319 315
172 3 6 605 4 315 319 320 316
173 3 6 605 4 316 320 321 317
174 3 6 605 4 317 321 322 318
175 3 6 605 4 318 322 167 166
176 3 6 605 4 162 92 93 319
177 3 6 605 4 319 93 94 320
178 3 6 605 4 320 94 95 321
179 3 6 605 4 321 95 96 322
180 3 6 605 4 322 96 97 167
181 3 7 606 4 31 163 323 32
182 3 7 606 4 32 323 324 33
183 3 7 606 4 33 324 325 34
184 3 7 606 4 34 325 326 35
185 3 7 606 4 35 326 168 36
186 3 7 606 4 163 164 327 323
187 3 7 606 4 323 327 328 324
188 3 7 606 4 324 328 329 325
189 3 7 606 4 325 329 330 326
190 3 7 606 4 326 330 169 168
191 3 7 606 4 164 165 331 327
192 3 7 606 4 327 331 332 328
193 3 7 606 4 328 332 333 329
194 3 7 606 4 329 333 334 330
195 3 7 606 4 330 334 170 169
196 3 7 606 4 165 166 335 331
197 3 7 606 4 331 335 336 332
198 3 7 606 4 332 336 337 333
199 3 7 606 4 333 337 338 334
200 3 7 606 4 334 338 171 170
201 3 7 606 4 166 167 339 335
202 3 7 606 4 335 339 340 336
203 3 7 606 4 336 340 341 337
204 3 7 606 4 337 341 342 338
205 3 7 606 4 338 342 172 171
206 3 7 606 4 167 97 98 339
207 3 7 606 4 339 98 99 340
208 3 7 606 4 340 99 100 341
209 3 7 606 4 341 100 101 342
210 3 7 606 4 342 101 102 172
211 3 8 607 4 36 168 343 37
212 3 8 607 4 37 343 344 38
213 3 8 607 4 38 344 345 39
214 3 8 607 4 39 345 346 40
215 3 8 607 4 40 346 173 41
216 3 8 607 4 168 169 347 343
217 3 8 607 4 343 347 348 344
218 3 8 607 4 344 348 349 345
219 3 8 607 4 345 349 350 346
220 3 8 607 4 346 350 174 173
221 3 8 607 4 169 170 351 347
222 3 8 607 4 347 351 352 348
223 3 8 607 4 348 352 353 349
224 3 8 607 4 349 353 354 350
225 3 8 607 4 350 354 175 174
226 3 8 607 4 170 171 355 351
227 3 8 607 4 351 355 356 352
228 3 8 607 4 352 356 357 353
229 3 8 607 4 353 357 358 354
230 3 8 607 4 354 358 176 175
231 3 8 607 4 171 172 359 355
232 3 8 607 4 355 359 360 356
233 3 8 607 4 356 360 361 357
234 3 8 607 4 357 361 362 358
235 3 8 607 4 358 362 177 176
236 3 8 607 4 172 102 103 359
237 3 8 607 4 359 103 104 360
238 3 8 607 4 360 104 105 361
239 3 8 607 4 361 105 106 362
240 3 8 607 4 362 106 107 177
241 3 9 608 4 41 173 363 42
242 3 9 608 4 42 363 364 43
243 3 9 608 4 43 364 365 44
244 3 9 608 4 44 365 366 45
245 3 9 608 4 45 366 178 46
246 3 9 608 4 173 174 367 363
247 3 9 608 4 363 367 368 364
248 3 9 608 4 364 368 369 365
249 3 9 608 4 365 369 370 366
250 3 9 608 4 366 370 179 178
251 3 9 608 4 174 175 371 367
252 3 9 608 4 367 371 372 368
253 3 9 608 4 368 372 373 369
254 3 9 608 4 369 373 374 370
255 3 9 608 4 370 374 180 179
256 3 9 608 4 175 176 375 371
257 3 9 608 4 371 375 376 372
258 3 9 608 4 372 376 377 373
259 3 9 608 4 373 377 378 374
260 3 9 608 4 374 378 181 180
261 3 9 608 4 176 177 379 375
262 3 9 608 4 375 379 380 376
263 3 9 608 4 376 380 381 377
264 3 9 608 4 377 381 382 378
265 3 9 608 4 378 382 182 181
266 3 9 608 4 177 107 108 379
267 3 9 608 4 379 108 109 380
268 3 9 608 4 380 109 110 381
269 3 9 608 4 381 110 111 382
270 3 9 608 4 382 111 112 182
271 3 10 609 4 46 178 383 47
272 3 10 609 4 47 383 384 48
273 3 10 609 4 48 384 385 49
274 3 10 609 4 49 385 386 50
275 3 10 609 4 50 386 183 51
276 3 10 609 4 178 179 387 383
277 3 10 609 4 383 387 388 384
278 3 10 609 4 384 388 389 385
279 3 10 609 4 385 389 390 386
280 3 10 609 4 386 390 184 183
281 3 10 609 4 179 180 391 387
282 3 10 609 4 387 391 392 388
283 3 10 609 4 388 392 393 389
284 3 10 609 4 389 393 394 390
285 3 10 609 4 390 394 185 184
286 3 10 609 4 180 181 395 391
287 3 10 609 4 391 395 396 392
288 3 10 609 4 392 396 397 393
289 3 10 609 4 393 397 398 394
290 3 10 609 4 394 398 186 185
291 3 10 609 4 181 182 399 395
292 3 10 609 4 395 399 400 396
293 3 10 609 4 396 400 401 397
294 3 10 609 4 397 401 402 398
295 3 10 609 4 398 402 187 186
296 3 10 609 4 182 112 113 399
297 3 10 609 4 399 113 114 400
298 3 10 609 4 400 114 115 401
299 3 10 609 4 401 115 116 402
300 3 10 609 4 402 116 117 187
301 3 11 610 4 51 183 403 52
302 3 11 610 4 52 403 404 53
303 3 11 610 4 53 404 405 54
304 3 11 610 4 54 405 406 55
305 3 11 610 4 55 406 188 56
306 3 11 610 4 183 184 407 403
307 3 11 610 4 403 407 408 404
308 3 11 610 4 404 408 409 405
309 3 11 610 4 405 409 410 406
310 3 11 610 4 406 410 189 188
311 3 11 610 4 184 185 411 407
312 3 11 610 4 407 411 412 408
313 3 11 610 4 408 412 413 409
314 3 11 610 4 409 413 414 410
315 3 11 610 4 410 414 190 189
316 3 11 610 4 185 186 415 411
317 3 11 610 4 411 415 416 412
318 3 11 610 4 412 416 417 413
319 3 11 610 4 413 417 418 414
320 3 11 610 4 414 418 191 190
321 3 11 610 4 186 187 419 415
322 3 11 610 4 415 419 420 416
323 3 11 610 4 416 420 421 417
324 3 11 610 4 417 421 422 418
325 3 11 610 4 418 422 192 191
326 3 11 610 4 187 117 118 419
327 3 11 610 4 419 118 119 420
328 3 11 610 4 420 119 120 421
329 3 11 610 4 421 120 121 422
330 3 11 610 4 422 121 122 192
331 3 12 611 4 56 188 423 57
332 3 12 611 4 57 423 424 58
333 3 12 611 4 58 424 425 59
334 3 12 611 4 59 425 426 60
335 3 12 611 4 60 426 193 61
336 3 12 611 4 188 189 427 423
337 3 12 611 4 423 427 428 424
338 3 12 611 4 424 428 429 425
339 3 12 611 4 425 429 430 426
340 3 12 611 4 426 430 194 193
341 3 12 611 4 189 190 431 427
342 3 12 611 4 427 431 432 428
343 3 12 611 4 428 432 433 429
344 3 12 611 4 429 433 434 430
345 3 12 611 4 430 434 195 194
346 3 12 611 4 190 191 435 431
347 3 12 611 4 431 435 436 432
348 3 12 611 4 432 436 437 433
349 3 12 611 4 433 437 438 434
350 3 12 611 4 434 438 196 195
351 3 12 611 4 191 192 439 435
352 3 12 611 4 435 439 440 436
353 3 12 611 4 436 440 441 437
354 3 12 611 4 437 441 442 438
355 3 12 611 4 438 442 197 196
356 3 12 611 4 192 122 123 439
357 3 12 611 4 439 123 124 440
358 3 12 611 4 440 124 125 441
359 3 12 611 4 441 125 126 442
360 3 12 611 4 442 126 127 197
361 3 13 612 4 61 193 443 62
362 3 13 612 4 62 443 444 63
363 3 13 612 4 63 444 445 64
364 3 13 612 4 64 445 446 65
365 3 13 612 4 65 446 198 66
366 3 13 612 4 193 194 447 443
367 3 13 612 4 443 447 448 444
368 3 13 612 4 444 448 449 445
369 3 13 612 4 445 449 450 446
370 3 13 612 4 446 450 199 198
371 3 13 612 4 194 195 451 447
372 3 13 612 4 447 451 452 448
373 3 13 612 4 448 452 453 449
374 3 13 612 4 449 453 454 450
375 3 13 612 4 450 454 200 199
376 3 13 612 4 195 196 455 451
377 3 13 612 4 451 455 456 452
378 3 13 612 4 452 456 457 453
379 3 13 612 4 453 457 458 454
380 3 13 612 4 454 458 201 200
381 3 13 612 4 196 197 459 455
382 3 13 612 4 455 459 460 456
383 3 13 612 4 456 460 461 457
384 3 13 612 4 457 461 462 458
385 3 13 612 4 458 462 202 201
386 3 13 612 4 197 127 128 459
387 3 13 612 4 459 128 129 460
388 3 13 612 4 460 129 130 461
389 3 13 612 4 461 130 131 462
390 3 13 612 4 462 131 132 202
$ENDELM
