$NOD
264
1	-720	-432	0
2	-720	-432	144
3	-720	-432	288
4	-720	-432	432
5	-720	-432	576
6	-720	-432	720
7	-720	-432	864
8	-720	-432	1008
9	-720	-432	1152
10	-720	-432	1296
11	-720	-432	1440
12	-720	-144	0
13	-720	-144	144
14	-720	-144	288
15	-720	-144	432
16	-720	-144	576
17	-720	-144	720
18	-720	-144	864
19	-720	-144	1008
20	-720	-144	1152
21	-720	-144	1296
22	-720	-144	1440
23	-720	144	0
24	-720	144	144
25	-720	144	288
26	-720	144	432
27	-720	144	576
28	-720	144	720
29	-720	144	864
30	-720	144	1008
31	-720	144	1152
32	-720	144	1296
33	-720	144	1440
34	-720	432	0
35	-720	432	144
36	-720	432	288
37	-720	432	432
38	-720	432	576
39	-720	432	720
40	-720	432	864
41	-720	432	1008
42	-720	432	1152
43	-720	432	1296
44	-720	432	1440
45	-432	-432	0
46	-432	-432	144
47	-432	-432	288
48	-432	-432	432
49	-432	-432	576
50	-432	-432	720
51	-432	-432	864
52	-432	-432	1008
53	-432	-432	1152
54	-432	-432	1296
55	-432	-432	1440
56	-432	-144	0
57	-432	-144	144
58	-432	-144	288
59	-432	-144	432
60	-432	-144	576
61	-432	-144	720
62	-432	-144	864
63	-432	-144	1008
64	-432	-144	1152
65	-432	-144	1296
66	-432	-144	1440
67	-432	144	0
68	-432	144	144
69	-432	144	288
70	-432	144	432
71	-432	144	576
72	-432	144	720
73	-432	144	864
74	-432	144	1008
75	-432	144	1152
76	-432	144	1296
77	-432	144	1440
78	-432	432	0
79	-432	432	144
80	-432	432	288
81	-432	432	432
82	-432	432	576
83	-432	432	720
84	-432	432	864
85	-432	432	1008
86	-432	432	1152
87	-432	432	1296
88	-432	432	1440
89	-144	-432	0
90	-144	-432	144
91	-144	-432	288
92	-144	-432	432
93	-144	-432	576
94	-144	-432	720
95	-144	-432	864
96	-144	-432	1008
97	-144	-432	1152
98	-144	-432	1296
99	-144	-432	1440
100	-144	-144	0
101	-144	-144	144
102	-144	-144	288
103	-144	-144	432
104	-144	-144	576
105	-144	-144	720
106	-144	-144	864
107	-144	-144	1008
108	-144	-144	1152
109	-144	-144	1296
110	-144	-144	1440
111	-144	144	0
112	-144	144	144
113	-144	144	288
114	-144	144	432
115	-144	144	576
116	-144	144	720
117	-144	144	864
118	-144	144	1008
119	-144	144	1152
120	-144	144	1296
121	-144	144	1440
122	-144	432	0
123	-144	432	144
124	-144	432	288
125	-144	432	432
126	-144	432	576
127	-144	432	720
128	-144	432	864
129	-144	432	1008
130	-144	432	1152
131	-144	432	1296
132	-144	432	1440
133	144	-432	0
134	144	-432	144
135	144	-432	288
136	144	-432	432
137	144	-432	576
138	144	-432	720
139	144	-432	864
140	144	-432	1008
141	144	-432	1152
142	144	-432	1296
143	144	-432	1440
144	144	-144	0
145	144	-144	144
146	144	-144	288
147	144	-144	432
148	144	-144	576
149	144	-144	720
150	144	-144	864
151	144	-144	1008
152	144	-144	1152
153	144	-144	1296
154	144	-144	1440
155	144	144	0
156	144	144	144
157	144	144	288
158	144	144	432
159	144	144	576
160	144	144	720
161	144	144	864
162	144	144	1008
163	144	144	1152
164	144	144	1296
165	144	144	1440
166	144	432	0
167	144	432	144
168	144	432	288
169	144	432	432
170	144	432	576
171	144	432	720
172	144	432	864
173	144	432	1008
174	144	432	1152
175	144	432	1296
176	144	432	1440
177	432	-432	0
178	432	-432	144
179	432	-432	288
180	432	-432	432
181	432	-432	576
182	432	-432	720
183	432	-432	864
184	432	-432	1008
185	432	-432	1152
186	432	-432	1296
187	432	-432	1440
188	432	-144	0
189	432	-144	144
190	432	-144	288
191	432	-144	432
192	432	-144	576
193	432	-144	720
194	432	-144	864
195	432	-144	1008
196	432	-144	1152
197	432	-144	1296
198	432	-144	1440
199	432	144	0
200	432	144	144
201	432	144	288
202	432	144	432
203	432	144	576
204	432	144	720
205	432	144	864
206	432	144	1008
207	432	144	1152
208	432	144	1296
209	432	144	1440
210	432	432	0
211	432	432	144
212	432	432	288
213	432	432	432
214	432	432	576
215	432	432	720
216	432	432	864
217	432	432	1008
218	432	432	1152
219	432	432	1296
220	432	432	1440
221	720	-432	0
222	720	-432	144
223	720	-432	288
224	720	-432	432
225	720	-432	576
226	720	-432	720
227	720	-432	864
228	720	-432	1008
229	720	-432	1152
230	720	-432	1296
231	720	-432	1440
232	720	-144	0
233	720	-144	144
234	720	-144	288
235	720	-144	432
236	720	-144	576
237	720	-144	720
238	720	-144	864
239	720	-144	1008
240	720	-144	1152
241	720	-144	1296
242	720	-144	1440
243	720	144	0
244	720	144	144
245	720	144	288
246	720	144	432
247	720	144	576
248	720	144	720
249	720	144	864
250	720	144	1008
251	720	144	1152
252	720	144	1296
253	720	144	1440
254	720	432	0
255	720	432	144
256	720	432	288
257	720	432	432
258	720	432	576
259	720	432	720
260	720	432	864
261	720	432	1008
262	720	432	1152
263	720	432	1296
264	720	432	1440
$ENDNOD
$ELM
770
1	1	1	1	2	1	2
2	1	1	1	2	2	3
3	1	1	1	2	3	4
4	1	1	1	2	4	5
5	1	1	1	2	5	6
6	1	1	1	2	6	7
7	1	1	1	2	7	8
8	1	1	1	2	8	9
9	1	1	1	2	9	10
10	1	1	1	2	10	11
11	1	1	1	2	12	13
12	1	1	1	2	13	14
13	1	1	1	2	14	15
14	1	1	1	2	15	16
15	1	1	1	2	16	17
16	1	1	1	2	17	18
17	1	1	1	2	18	19
18	1	1	1	2	19	20
19	1	1	1	2	20	21
20	1	1	1	2	21	22
21	1	1	1	2	23	24
22	1	1	1	2	24	25
23	1	1	1	2	25	26
24	1	1	1	2	26	27
25	1	1	1	2	27	28
26	1	1	1	2	28	29
27	1	1	1	2	29	30
28	1	1	1	2	30	31
29	1	1	1	2	31	32
30	1	1	1	2	32	33
31	1	1	1	2	34	35
32	1	1	1	2	35	36
33	1	1	1	2	36	37
34	1	1	1	2	37	38
35	1	1	1	2	38	39
36	1	1	1	2	39	40
37	1	1	1	2	40	41
38	1	1	1	2	41	42
39	1	1	1	2	42	43
40	1	1	1	2	43	44
41	1	1	1	2	45	46
42	1	1	1	2	46	47
43	1	1	1	2	47	48
44	1	1	1	2	48	49
45	1	1	1	2	49	50
46	1	1	1	2	50	51
47	1	1	1	2	51	52
48	1	1	1	2	52	53
49	1	1	1	2	53	54
50	1	1	1	2	54	55
51	1	1	1	2	56	57
52	1	1	1	2	57	58
53	1	1	1	2	58	59
54	1	1	1	2	59	60
55	1	1	1	2	60	61
56	1	1	1	2	61	62
57	1	1	1	2	62	63
58	1	1	1	2	63	64
59	1	1	1	2	64	65
60	1	1	1	2	65	66
61	1	1	1	2	67	68
62	1	1	1	2	68	69
63	1	1	1	2	69	70
64	1	1	1	2	70	71
65	1	1	1	2	71	72
66	1	1	1	2	72	73
67	1	1	1	2	73	74
68	1	1	1	2	74	75
69	1	1	1	2	75	76
70	1	1	1	2	76	77
71	1	1	1	2	78	79
72	1	1	1	2	79	80
73	1	1	1	2	80	81
74	1	1	1	2	81	82
75	1	1	1	2	82	83
76	1	1	1	2	83	84
77	1	1	1	2	84	85
78	1	1	1	2	85	86
79	1	1	1	2	86	87
80	1	1	1	2	87	88
81	1	1	1	2	89	90
82	1	1	1	2	90	91
83	1	1	1	2	91	92
84	1	1	1	2	92	93
85	1	1	1	2	93	94
86	1	1	1	2	94	95
87	1	1	1	2	95	96
88	1	1	1	2	96	97
89	1	1	1	2	97	98
90	1	1	1	2	98	99
91	1	1	1	2	100	101
92	1	1	1	2	101	102
93	1	1	1	2	102	103
94	1	1	1	2	103	104
95	1	1	1	2	104	105
96	1	1	1	2	105	106
97	1	1	1	2	106	107
98	1	1	1	2	107	108
99	1	1	1	2	108	109
100	1	1	1	2	109	110
101	1	1	1	2	111	112
102	1	1	1	2	112	113
103	1	1	1	2	113	114
104	1	1	1	2	114	115
105	1	1	1	2	115	116
106	1	1	1	2	116	117
107	1	1	1	2	117	118
108	1	1	1	2	118	119
109	1	1	1	2	119	120
110	1	1	1	2	120	121
111	1	1	1	2	122	123
112	1	1	1	2	123	124
113	1	1	1	2	124	125
114	1	1	1	2	125	126
115	1	1	1	2	126	127
116	1	1	1	2	127	128
117	1	1	1	2	128	129
118	1	1	1	2	129	130
119	1	1	1	2	130	131
120	1	1	1	2	131	132
121	1	1	1	2	133	134
122	1	1	1	2	134	135
123	1	1	1	2	135	136
124	1	1	1	2	136	137
125	1	1	1	2	137	138
126	1	1	1	2	138	139
127	1	1	1	2	139	140
128	1	1	1	2	140	141
129	1	1	1	2	141	142
130	1	1	1	2	142	143
131	1	1	1	2	144	145
132	1	1	1	2	145	146
133	1	1	1	2	146	147
134	1	1	1	2	147	148
135	1	1	1	2	148	149
136	1	1	1	2	149	150
137	1	1	1	2	150	151
138	1	1	1	2	151	152
139	1	1	1	2	152	153
140	1	1	1	2	153	154
141	1	1	1	2	155	156
142	1	1	1	2	156	157
143	1	1	1	2	157	158
144	1	1	1	2	158	159
145	1	1	1	2	159	160
146	1	1	1	2	160	161
147	1	1	1	2	161	162
148	1	1	1	2	162	163
149	1	1	1	2	163	164
150	1	1	1	2	164	165
151	1	1	1	2	166	167
152	1	1	1	2	167	168
153	1	1	1	2	168	169
154	1	1	1	2	169	170
155	1	1	1	2	170	171
156	1	1	1	2	171	172
157	1	1	1	2	172	173
158	1	1	1	2	173	174
159	1	1	1	2	174	175
160	1	1	1	2	175	176
161	1	1	1	2	177	178
162	1	1	1	2	178	179
163	1	1	1	2	179	180
164	1	1	1	2	180	181
165	1	1	1	2	181	182
166	1	1	1	2	182	183
167	1	1	1	2	183	184
168	1	1	1	2	184	185
169	1	1	1	2	185	186
170	1	1	1	2	186	187
171	1	1	1	2	188	189
172	1	1	1	2	189	190
173	1	1	1	2	190	191
174	1	1	1	2	191	192
175	1	1	1	2	192	193
176	1	1	1	2	193	194
177	1	1	1	2	194	195
178	1	1	1	2	195	196
179	1	1	1	2	196	197
180	1	1	1	2	197	198
181	1	1	1	2	199	200
182	1	1	1	2	200	201
183	1	1	1	2	201	202
184	1	1	1	2	202	203
185	1	1	1	2	203	204
186	1	1	1	2	204	205
187	1	1	1	2	205	206
188	1	1	1	2	206	207
189	1	1	1	2	207	208
190	1	1	1	2	208	209
191	1	1	1	2	210	211
192	1	1	1	2	211	212
193	1	1	1	2	212	213
194	1	1	1	2	213	214
195	1	1	1	2	214	215
196	1	1	1	2	215	216
197	1	1	1	2	216	217
198	1	1	1	2	217	218
199	1	1	1	2	218	219
200	1	1	1	2	219	220
201	1	1	1	2	221	222
202	1	1	1	2	222	223
203	1	1	1	2	223	224
204	1	1	1	2	224	225
205	1	1	1	2	225	226
206	1	1	1	2	226	227
207	1	1	1	2	227	228
208	1	1	1	2	228	229
209	1	1	1	2	229	230
210	1	1	1	2	230	231
211	1	1	1	2	232	233
212	1	1	1	2	233	234
213	1	1	1	2	234	235
214	1	1	1	2	235	236
215	1	1	1	2	236	237
216	1	1	1	2	237	238
217	1	1	1	2	238	239
218	1	1	1	2	239	240
219	1	1	1	2	240	241
220	1	1	1	2	241	242
221	1	1	1	2	243	244
222	1	1	1	2	244	245
223	1	1	1	2	245	246
224	1	1	1	2	246	247
225	1	1	1	2	247	248
226	1	1	1	2	248	249
227	1	1	1	2	249	250
228	1	1	1	2	250	251
229	1	1	1	2	251	252
230	1	1	1	2	252	253
231	1	1	1	2	254	255
232	1	1	1	2	255	256
233	1	1	1	2	256	257
234	1	1	1	2	257	258
235	1	1	1	2	258	259
236	1	1	1	2	259	260
237	1	1	1	2	260	261
238	1	1	1	2	261	262
239	1	1	1	2	262	263
240	1	1	1	2	263	264
241	1	1	1	2	2	46
242	1	1	1	2	3	47
243	1	1	1	2	4	48
244	1	1	1	2	5	49
245	1	1	1	2	6	50
246	1	1	1	2	7	51
247	1	1	1	2	8	52
248	1	1	1	2	9	53
249	1	1	1	2	10	54
250	1	1	1	2	11	55
251	1	1	1	2	46	90
252	1	1	1	2	47	91
253	1	1	1	2	48	92
254	1	1	1	2	49	93
255	1	1	1	2	50	94
256	1	1	1	2	51	95
257	1	1	1	2	52	96
258	1	1	1	2	53	97
259	1	1	1	2	54	98
260	1	1	1	2	55	99
261	1	1	1	2	90	134
262	1	1	1	2	91	135
263	1	1	1	2	92	136
264	1	1	1	2	93	137
265	1	1	1	2	94	138
266	1	1	1	2	95	139
267	1	1	1	2	96	140
268	1	1	1	2	97	141
269	1	1	1	2	98	142
270	1	1	1	2	99	143
271	1	1	1	2	134	178
272	1	1	1	2	135	179
273	1	1	1	2	136	180
274	1	1	1	2	137	181
275	1	1	1	2	138	182
276	1	1	1	2	139	183
277	1	1	1	2	140	184
278	1	1	1	2	141	185
279	1	1	1	2	142	186
280	1	1	1	2	143	187
281	1	1	1	2	178	222
282	1	1	1	2	179	223
283	1	1	1	2	180	224
284	1	1	1	2	181	225
285	1	1	1	2	182	226
286	1	1	1	2	183	227
287	1	1	1	2	184	228
288	1	1	1	2	185	229
289	1	1	1	2	186	230
290	1	1	1	2	187	231
291	1	1	1	2	13	57
292	1	1	1	2	14	58
293	1	1	1	2	15	59
294	1	1	1	2	16	60
295	1	1	1	2	17	61
296	1	1	1	2	18	62
297	1	1	1	2	19	63
298	1	1	1	2	20	64
299	1	1	1	2	21	65
300	1	1	1	2	22	66
301	1	1	1	2	57	101
302	1	1	1	2	58	102
303	1	1	1	2	59	103
304	1	1	1	2	60	104
305	1	1	1	2	61	105
306	1	1	1	2	62	106
307	1	1	1	2	63	107
308	1	1	1	2	64	108
309	1	1	1	2	65	109
310	1	1	1	2	66	110
311	1	1	1	2	101	145
312	1	1	1	2	102	146
313	1	1	1	2	103	147
314	1	1	1	2	104	148
315	1	1	1	2	105	149
316	1	1	1	2	106	150
317	1	1	1	2	107	151
318	1	1	1	2	108	152
319	1	1	1	2	109	153
320	1	1	1	2	110	154
321	1	1	1	2	145	189
322	1	1	1	2	146	190
323	1	1	1	2	147	191
324	1	1	1	2	148	192
325	1	1	1	2	149	193
326	1	1	1	2	150	194
327	1	1	1	2	151	195
328	1	1	1	2	152	196
329	1	1	1	2	153	197
330	1	1	1	2	154	198
331	1	1	1	2	189	233
332	1	1	1	2	190	234
333	1	1	1	2	191	235
334	1	1	1	2	192	236
335	1	1	1	2	193	237
336	1	1	1	2	194	238
337	1	1	1	2	195	239
338	1	1	1	2	196	240
339	1	1	1	2	197	241
340	1	1	1	2	198	242
341	1	1	1	2	24	68
342	1	1	1	2	25	69
343	1	1	1	2	26	70
344	1	1	1	2	27	71
345	1	1	1	2	28	72
346	1	1	1	2	29	73
347	1	1	1	2	30	74
348	1	1	1	2	31	75
349	1	1	1	2	32	76
350	1	1	1	2	33	77
351	1	1	1	2	68	112
352	1	1	1	2	69	113
353	1	1	1	2	70	114
354	1	1	1	2	71	115
355	1	1	1	2	72	116
356	1	1	1	2	73	117
357	1	1	1	2	74	118
358	1	1	1	2	75	119
359	1	1	1	2	76	120
360	1	1	1	2	77	121
361	1	1	1	2	112	156
362	1	1	1	2	113	157
363	1	1	1	2	114	158
364	1	1	1	2	115	159
365	1	1	1	2	116	160
366	1	1	1	2	117	161
367	1	1	1	2	118	162
368	1	1	1	2	119	163
369	1	1	1	2	120	164
370	1	1	1	2	121	165
371	1	1	1	2	156	200
372	1	1	1	2	157	201
373	1	1	1	2	158	202
374	1	1	1	2	159	203
375	1	1	1	2	160	204
376	1	1	1	2	161	205
377	1	1	1	2	162	206
378	1	1	1	2	163	207
379	1	1	1	2	164	208
380	1	1	1	2	165	209
381	1	1	1	2	200	244
382	1	1	1	2	201	245
383	1	1	1	2	202	246
384	1	1	1	2	203	247
385	1	1	1	2	204	248
386	1	1	1	2	205	249
387	1	1	1	2	206	250
388	1	1	1	2	207	251
389	1	1	1	2	208	252
390	1	1	1	2	209	253
391	1	1	1	2	35	79
392	1	1	1	2	36	80
393	1	1	1	2	37	81
394	1	1	1	2	38	82
395	1	1	1	2	39	83
396	1	1	1	2	40	84
397	1	1	1	2	41	85
398	1	1	1	2	42	86
399	1	1	1	2	43	87
400	1	1	1	2	44	88
401	1	1	1	2	79	123
402	1	1	1	2	80	124
403	1	1	1	2	81	125
404	1	1	1	2	82	126
405	1	1	1	2	83	127
406	1	1	1	2	84	128
407	1	1	1	2	85	129
408	1	1	1	2	86	130
409	1	1	1	2	87	131
410	1	1	1	2	88	132
411	1	1	1	2	123	167
412	1	1	1	2	124	168
413	1	1	1	2	125	169
414	1	1	1	2	126	170
415	1	1	1	2	127	171
416	1	1	1	2	128	172
417	1	1	1	2	129	173
418	1	1	1	2	130	174
419	1	1	1	2	131	175
420	1	1	1	2	132	176
421	1	1	1	2	167	211
422	1	1	1	2	168	212
423	1	1	1	2	169	213
424	1	1	1	2	170	214
425	1	1	1	2	171	215
426	1	1	1	2	172	216
427	1	1	1	2	173	217
428	1	1	1	2	174	218
429	1	1	1	2	175	219
430	1	1	1	2	176	220
431	1	1	1	2	211	255
432	1	1	1	2	212	256
433	1	1	1	2	213	257
434	1	1	1	2	214	258
435	1	1	1	2	215	259
436	1	1	1	2	216	260
437	1	1	1	2	217	261
438	1	1	1	2	218	262
439	1	1	1	2	219	263
440	1	1	1	2	220	264
441	1	1	1	2	2	13
442	1	1	1	2	3	14
443	1	1	1	2	4	15
444	1	1	1	2	5	16
445	1	1	1	2	6	17
446	1	1	1	2	7	18
447	1	1	1	2	8	19
448	1	1	1	2	9	20
449	1	1	1	2	10	21
450	1	1	1	2	11	22
451	1	1	1	2	13	24
452	1	1	1	2	14	25
453	1	1	1	2	15	26
454	1	1	1	2	16	27
455	1	1	1	2	17	28
456	1	1	1	2	18	29
457	1	1	1	2	19	30
458	1	1	1	2	20	31
459	1	1	1	2	21	32
460	1	1	1	2	22	33
461	1	1	1	2	24	35
462	1	1	1	2	25	36
463	1	1	1	2	26	37
464	1	1	1	2	27	38
465	1	1	1	2	28	39
466	1	1	1	2	29	40
467	1	1	1	2	30	41
468	1	1	1	2	31	42
469	1	1	1	2	32	43
470	1	1	1	2	33	44
471	1	1	1	2	46	57
472	1	1	1	2	47	58
473	1	1	1	2	48	59
474	1	1	1	2	49	60
475	1	1	1	2	50	61
476	1	1	1	2	51	62
477	1	1	1	2	52	63
478	1	1	1	2	53	64
479	1	1	1	2	54	65
480	1	1	1	2	55	66
481	1	1	1	2	57	68
482	1	1	1	2	58	69
483	1	1	1	2	59	70
484	1	1	1	2	60	71
485	1	1	1	2	61	72
486	1	1	1	2	62	73
487	1	1	1	2	63	74
488	1	1	1	2	64	75
489	1	1	1	2	65	76
490	1	1	1	2	66	77
491	1	1	1	2	68	79
492	1	1	1	2	69	80
493	1	1	1	2	70	81
494	1	1	1	2	71	82
495	1	1	1	2	72	83
496	1	1	1	2	73	84
497	1	1	1	2	74	85
498	1	1	1	2	75	86
499	1	1	1	2	76	87
500	1	1	1	2	77	88
501	1	1	1	2	90	101
502	1	1	1	2	91	102
503	1	1	1	2	92	103
504	1	1	1	2	93	104
505	1	1	1	2	94	105
506	1	1	1	2	95	106
507	1	1	1	2	96	107
508	1	1	1	2	97	108
509	1	1	1	2	98	109
510	1	1	1	2	99	110
511	1	1	1	2	101	112
512	1	1	1	2	102	113
513	1	1	1	2	103	114
514	1	1	1	2	104	115
515	1	1	1	2	105	116
516	1	1	1	2	106	117
517	1	1	1	2	107	118
518	1	1	1	2	108	119
519	1	1	1	2	109	120
520	1	1	1	2	110	121
521	1	1	1	2	112	123
522	1	1	1	2	113	124
523	1	1	1	2	114	125
524	1	1	1	2	115	126
525	1	1	1	2	116	127
526	1	1	1	2	117	128
527	1	1	1	2	118	129
528	1	1	1	2	119	130
529	1	1	1	2	120	131
530	1	1	1	2	121	132
531	1	1	1	2	134	145
532	1	1	1	2	135	146
533	1	1	1	2	136	147
534	1	1	1	2	137	148
535	1	1	1	2	138	149
536	1	1	1	2	139	150
537	1	1	1	2	140	151
538	1	1	1	2	141	152
539	1	1	1	2	142	153
540	1	1	1	2	143	154
541	1	1	1	2	145	156
542	1	1	1	2	146	157
543	1	1	1	2	147	158
544	1	1	1	2	148	159
545	1	1	1	2	149	160
546	1	1	1	2	150	161
547	1	1	1	2	151	162
548	1	1	1	2	152	163
549	1	1	1	2	153	164
550	1	1	1	2	154	165
551	1	1	1	2	156	167
552	1	1	1	2	157	168
553	1	1	1	2	158	169
554	1	1	1	2	159	170
555	1	1	1	2	160	171
556	1	1	1	2	161	172
557	1	1	1	2	162	173
558	1	1	1	2	163	174
559	1	1	1	2	164	175
560	1	1	1	2	165	176
561	1	1	1	2	178	189
562	1	1	1	2	179	190
563	1	1	1	2	180	191
564	1	1	1	2	181	192
565	1	1	1	2	182	193
566	1	1	1	2	183	194
567	1	1	1	2	184	195
568	1	1	1	2	185	196
569	1	1	1	2	186	197
570	1	1	1	2	187	198
571	1	1	1	2	189	200
572	1	1	1	2	190	201
573	1	1	1	2	191	202
574	1	1	1	2	192	203
575	1	1	1	2	193	204
576	1	1	1	2	194	205
577	1	1	1	2	195	206
578	1	1	1	2	196	207
579	1	1	1	2	197	208
580	1	1	1	2	198	209
581	1	1	1	2	200	211
582	1	1	1	2	201	212
583	1	1	1	2	202	213
584	1	1	1	2	203	214
585	1	1	1	2	204	215
586	1	1	1	2	205	216
587	1	1	1	2	206	217
588	1	1	1	2	207	218
589	1	1	1	2	208	219
590	1	1	1	2	209	220
591	1	1	1	2	222	233
592	1	1	1	2	223	234
593	1	1	1	2	224	235
594	1	1	1	2	225	236
595	1	1	1	2	226	237
596	1	1	1	2	227	238
597	1	1	1	2	228	239
598	1	1	1	2	229	240
599	1	1	1	2	230	241
600	1	1	1	2	231	242
601	1	1	1	2	233	244
602	1	1	1	2	234	245
603	1	1	1	2	235	246
604	1	1	1	2	236	247
605	1	1	1	2	237	248
606	1	1	1	2	238	249
607	1	1	1	2	239	250
608	1	1	1	2	240	251
609	1	1	1	2	241	252
610	1	1	1	2	242	253
611	1	1	1	2	244	255
612	1	1	1	2	245	256
613	1	1	1	2	246	257
614	1	1	1	2	247	258
615	1	1	1	2	248	259
616	1	1	1	2	249	260
617	1	1	1	2	250	261
618	1	1	1	2	251	262
619	1	1	1	2	252	263
620	1	1	1	2	253	264
621	3	2	2	4	2	46	57	13
622	3	2	2	4	13	57	68	24
623	3	2	2	4	24	68	79	35
624	3	2	2	4	46	90	101	57
625	3	2	2	4	57	101	112	68
626	3	2	2	4	68	112	123	79
627	3	2	2	4	90	134	145	101
628	3	2	2	4	101	145	156	112
629	3	2	2	4	112	156	167	123
630	3	2	2	4	134	178	189	145
631	3	2	2	4	145	189	200	156
632	3	2	2	4	156	200	211	167
633	3	2	2	4	178	222	233	189
634	3	2	2	4	189	233	244	200
635	3	2	2	4	200	244	255	211
636	3	2	2	4	3	47	58	14
637	3	2	2	4	14	58	69	25
638	3	2	2	4	25	69	80	36
639	3	2	2	4	47	91	102	58
640	3	2	2	4	58	102	113	69
641	3	2	2	4	69	113	124	80
642	3	2	2	4	91	135	146	102
643	3	2	2	4	102	146	157	113
644	3	2	2	4	113	157	168	124
645	3	2	2	4	135	179	190	146
646	3	2	2	4	146	190	201	157
647	3	2	2	4	157	201	212	168
648	3	2	2	4	179	223	234	190
649	3	2	2	4	190	234	245	201
650	3	2	2	4	201	245	256	212
651	3	2	2	4	4	48	59	15
652	3	2	2	4	15	59	70	26
653	3	2	2	4	26	70	81	37
654	3	2	2	4	48	92	103	59
655	3	2	2	4	59	103	114	70
656	3	2	2	4	70	114	125	81
657	3	2	2	4	92	136	147	103
658	3	2	2	4	103	147	158	114
659	3	2	2	4	114	158	169	125
660	3	2	2	4	136	180	191	147
661	3	2	2	4	147	191	202	158
662	3	2	2	4	158	202	213	169
663	3	2	2	4	180	224	235	191
664	3	2	2	4	191	235	246	202
665	3	2	2	4	202	246	257	213
666	3	2	2	4	5	49	60	16
667	3	2	2	4	16	60	71	27
668	3	2	2	4	27	71	82	38
669	3	2	2	4	49	93	104	60
670	3	2	2	4	60	104	115	71
671	3	2	2	4	71	115	126	82
672	3	2	2	4	93	137	148	104
673	3	2	2	4	104	148	159	115
674	3	2	2	4	115	159	170	126
675	3	2	2	4	137	181	192	148
676	3	2	2	4	148	192	203	159
677	3	2	2	4	159	203	214	170
678	3	2	2	4	181	225	236	192
679	3	2	2	4	192	236	247	203
680	3	2	2	4	203	247	258	214
681	3	2	2	4	6	50	61	17
682	3	2	2	4	17	61	72	28
683	3	2	2	4	28	72	83	39
684	3	2	2	4	50	94	105	61
685	3	2	2	4	61	105	116	72
686	3	2	2	4	72	116	127	83
687	3	2	2	4	94	138	149	105
688	3	2	2	4	105	149	160	116
689	3	2	2	4	116	160	171	127
690	3	2	2	4	138	182	193	149
691	3	2	2	4	149	193	204	160
692	3	2	2	4	160	204	215	171
693	3	2	2	4	182	226	237	193
694	3	2	2	4	193	237	248	204
695	3	2	2	4	204	248	259	215
696	3	2	2	4	7	51	62	18
697	3	2	2	4	18	62	73	29
698	3	2	2	4	29	73	84	40
699	3	2	2	4	51	95	106	62
700	3	2	2	4	62	106	117	73
701	3	2	2	4	73	117	128	84
702	3	2	2	4	95	139	150	106
703	3	2	2	4	106	150	161	117
704	3	2	2	4	117	161	172	128
705	3	2	2	4	139	183	194	150
706	3	2	2	4	150	194	205	161
707	3	2	2	4	161	205	216	172
708	3	2	2	4	183	227	238	194
709	3	2	2	4	194	238	249	205
710	3	2	2	4	205	249	260	216
711	3	2	2	4	8	52	63	19
712	3	2	2	4	19	63	74	30
713	3	2	2	4	30	74	85	41
714	3	2	2	4	52	96	107	63
715	3	2	2	4	63	107	118	74
716	3	2	2	4	74	118	129	85
717	3	2	2	4	96	140	151	107
718	3	2	2	4	107	151	162	118
719	3	2	2	4	118	162	173	129
720	3	2	2	4	140	184	195	151
721	3	2	2	4	151	195	206	162
722	3	2	2	4	162	206	217	173
723	3	2	2	4	184	228	239	195
724	3	2	2	4	195	239	250	206
725	3	2	2	4	206	250	261	217
726	3	2	2	4	9	53	64	20
727	3	2	2	4	20	64	75	31
728	3	2	2	4	31	75	86	42
729	3	2	2	4	53	97	108	64
730	3	2	2	4	64	108	119	75
731	3	2	2	4	75	119	130	86
732	3	2	2	4	97	141	152	108
733	3	2	2	4	108	152	163	119
734	3	2	2	4	119	163	174	130
735	3	2	2	4	141	185	196	152
736	3	2	2	4	152	196	207	163
737	3	2	2	4	163	207	218	174
738	3	2	2	4	185	229	240	196
739	3	2	2	4	196	240	251	207
740	3	2	2	4	207	251	262	218
741	3	2	2	4	10	54	65	21
742	3	2	2	4	21	65	76	32
743	3	2	2	4	32	76	87	43
744	3	2	2	4	54	98	109	65
745	3	2	2	4	65	109	120	76
746	3	2	2	4	76	120	131	87
747	3	2	2	4	98	142	153	109
748	3	2	2	4	109	153	164	120
749	3	2	2	4	120	164	175	131
750	3	2	2	4	142	186	197	153
751	3	2	2	4	153	197	208	164
752	3	2	2	4	164	208	219	175
753	3	2	2	4	186	230	241	197
754	3	2	2	4	197	241	252	208
755	3	2	2	4	208	252	263	219
756	3	2	2	4	11	55	66	22
757	3	2	2	4	22	66	77	33
758	3	2	2	4	33	77	88	44
759	3	2	2	4	55	99	110	66
760	3	2	2	4	66	110	121	77
761	3	2	2	4	77	121	132	88
762	3	2	2	4	99	143	154	110
763	3	2	2	4	110	154	165	121
764	3	2	2	4	121	165	176	132
765	3	2	2	4	143	187	198	154
766	3	2	2	4	154	198	209	165
767	3	2	2	4	165	209	220	176
768	3	2	2	4	187	231	242	198
769	3	2	2	4	198	242	253	209
770	3	2	2	4	209	253	264	220
$ENDELM
